<!DOCTYPE svg PUBLIC "-//W3C//DTD SVG 1.1//EN" "http://www.w3.org/Graphics/SVG/1.1/DTD/svg11.dtd">
<!-- Uploaded to: SVG Repo, www.svgrepo.com, Transformed by: SVG Repo Mixer Tools -->
<svg width="800px" height="800px" viewBox="-3.2 -3.2 38.40 38.40" fill="none" xmlns="http://www.w3.org/2000/svg">
<g id="SVGRepo_bgCarrier" stroke-width="0">
<path transform="translate(-3.2, -3.2), scale(1.2)" d="M16,31.241199428215623C19.674646168174284,30.381869153880444,20.415702676035142,25.650200399706023,22.512620022339796,22.5126200223398C23.952322519939262,20.3584186115528,26.019779477660254,18.585668717798026,26.186045173555613,16C26.36197095324668,13.264103200892949,25.16789386422779,10.694149880325721,23.407737776854965,8.592262223145035C21.449261389058215,6.253550687320951,19.048100469685608,3.7168303755832546,16,3.836349980905652C12.99826912426672,3.954051379898152,11.347765621374052,7.101965166986666,9.151274904247126,9.151274904247124C6.812536163757811,11.333301004526819,3.61992487166989,12.869653344364032,2.962759280577302,15.999999999999998C2.1943089818733363,19.66044092261596,3.0803873646880593,23.64611640717282,5.511633197211786,26.488366802788207C8.105364989527416,29.52057157377875,12.114625084596398,32.14980943830747,16,31.241199428215623" fill="#000000" strokewidth="0"/>
</g>
<g id="SVGRepo_tracerCarrier" stroke-linecap="round" stroke-linejoin="round"/>
<g id="SVGRepo_iconCarrier"> <path d="M6 28L4 3H28L26 28L16 31L6 28Z" fill="#1172B8"/> <path d="M26 5H16V29.5L24 27L26 5Z" fill="#33AADD"/> <path d="M19.5 17.5H9.5L9 14L17 11.5H9L8.5 8.5H24L23.5 12L17 14.5H23L22 24L16 26L10 24L9.5 19H12.5L13 21.5L16 22.5L19 21.5L19.5 17.5Z" fill="white"/> </g>
</svg>