<!DOCTYPE svg PUBLIC "-//W3C//DTD SVG 1.1//EN" "http://www.w3.org/Graphics/SVG/1.1/DTD/svg11.dtd">
<!-- Uploaded to: SVG Repo, www.svgrepo.com, Transformed by: SVG Repo Mixer Tools -->
<svg width="136px" height="136px" viewBox="-3.2 -3.2 38.40 38.40" fill="none" xmlns="http://www.w3.org/2000/svg" transform="matrix(1, 0, 0, 1, 0, 0)rotate(0)">
<g id="SVGRepo_bgCarrier" stroke-width="0" transform="translate(0,0), scale(1)">
<path transform="translate(-3.2, -3.2), scale(1.2)" d="M16,31.89472230974781C19.20499299605034,31.80969016753144,20.551311521050515,27.712115839319853,23.04777295809027,25.700427279101092C25.359258452802802,23.837795292148126,28.82991179191417,23.27047510505426,30.056974069285545,20.567387744546103C31.321596514829228,17.781559338438672,30.470381327153717,14.513521803888025,29.43252034228727,11.635509570741686C28.421209511116807,8.831121520644095,26.740902582264233,6.2871969084059085,24.293460024710896,4.585031563837511C21.87978495674134,2.906351081197818,18.9058218718625,1.8461538406757585,16,2.2933615614709097C13.27844582908278,2.7122103730865783,11.100951140097683,4.735741209551465,9.374687437306083,6.881039571237551C7.955370056684631,8.64488321021104,8.001058691280276,11.021016145132284,7.256628373046517,13.159106346918861C6.488947112146039,15.363975952338492,4.694810220386732,17.269753102982662,4.949565151856836,19.590503934100198C5.228620181404565,22.132622306503215,6.966374780415476,24.179061245391704,8.675180855296837,26.081748641490552C10.810186460360512,28.458992212348697,12.805887529651372,31.979465779130884,16,31.89472230974781" fill="#000000" strokewidth="0"/>
</g>
<g id="SVGRepo_tracerCarrier" stroke-linecap="round" stroke-linejoin="round" stroke="#CCCCCC" stroke-width="0.064"/>
<g id="SVGRepo_iconCarrier"> <path d="M6 28L4 3H28L26 28L16 31L6 28Z" fill="#E44D26"/> <path d="M26 5H16V29.5L24 27L26 5Z" fill="#F16529"/> <path d="M9.5 17.5L8.5 8H24L23.5 11H11.5L12 14.5H23L22 24L16 26L10 24L9.5 19H12.5L13 21.5L16 22.5L19 21.5L19.5 17.5H9.5Z" fill="white"/> </g>
</svg>